<svg viewBox="0 0 24 24" fill="none" xmlns="http://www.w3.org/2000/svg">
  <path d="M12 3.5a8.2 8.2 0 0 0-7.1 12.3L4 20.5l4.8-1.3A8.2 8.2 0 1 0 12 3.5Z" stroke="#fdeef3" stroke-width="1.5" stroke-linejoin="round"/>
  <path d="M8.9 8.7c-.2.4-.5 1.1-.4 1.7.2 1.2 1 2.5 2 3.4 1 .9 2.3 1.6 3.5 1.7.6.1 1.3-.2 1.7-.5.3-.2.4-.6.3-1l-.2-.6c-.1-.3-.4-.5-.7-.6l-1.2-.4c-.3-.1-.6 0-.8.2l-.4.4c-.6-.2-1.2-.6-1.7-1.1-.5-.5-.9-1.1-1.1-1.7l.4-.4c.2-.2.3-.5.2-.8l-.4-1.2c-.1-.3-.3-.5-.6-.6Z" fill="#fdeef3"/>
</svg>
